<svg id="Ebene_1" data-name="Ebene 1" xmlns="http://www.w3.org/2000/svg" viewBox="0 0 128 128"><defs><style>.cls-1{fill:#fff;}.cls-2{fill:#dabdb0;}</style></defs><rect class="cls-1" x="29.84" y="31.98" width="68.33" height="68.33"/><path class="cls-2" d="M65.57,0A64,64,0,1,0,128,65.58,64.07,64.07,0,0,0,65.57,0ZM38.73,84a8.26,8.26,0,1,1,8.45-8h0A8.25,8.25,0,0,1,38.73,84ZM75.67,93.2a4.13,4.13,0,1,1,4.23-4h0a4.12,4.12,0,0,1-4.22,4Zm.82-33A12.39,12.39,0,1,1,89.17,48.1,12.39,12.39,0,0,1,76.49,60.18Z"/></svg>